<mxfile host="app.diagrams.net" modified="2023-12-27T06:39:12.775Z" agent="Mozilla/5.0 (Windows NT 10.0; Win64; x64) AppleWebKit/537.36 (KHTML, like Gecko) Chrome/118.0.0.0 YaBrowser/23.11.0.0 Safari/537.36" version="22.1.12" etag="bRh-15HyZTmk7AJp1zLF" type="github">
  <diagram name="Страница — 1" id="Eqya4cr45G4mEzBSwJtX">
    <mxGraphModel>
      <root>
        <mxCell id="0" />
        <mxCell id="1" parent="0" />
      </root>
    </mxGraphModel>
  </diagram>
</mxfile>
